<?xml version="1.0" encoding="utf-8"?>
<!-- Svg Vector Icons : http://www.onlinewebfonts.com/icon -->
<!DOCTYPE svg PUBLIC "-//W3C//DTD SVG 1.1//EN" "http://www.w3.org/Graphics/SVG/1.1/DTD/svg11.dtd">
<svg version="1.1" xmlns="http://www.w3.org/2000/svg" xmlns:xlink="http://www.w3.org/1999/xlink" x="0px" y="0px" viewBox="0 0 1000 1000" enable-background="new 0 0 1000 1000" xml:space="preserve">
<metadata> Svg Vector Icons : http://www.onlinewebfonts.com/icon </metadata>
<g><g><g><path d="M977,498.2c-18.3,13.6-39,22.8-63.4,24.1c-10.1,0.5-19.3-2-27.9-6.6c-0.8-0.4-1.3-1.1-1.7-2.7c3.2,0.3,6.5,0.5,9.7,0.8c29.6,2.7,55.1-4.8,75.6-23.9c13.1-12.2,17.7-27.3,18.3-43.6c0.6-13.6-3.7-25.7-13.6-36.3c0.8,2.1,1.7,4.3,2.5,6.4c6.1,16,5.5,31.7-3.1,46.8c-2.6,4.5-6.4,8.6-10.4,12.3c-10.7,9.7-23.2,16.9-37.7,21.6c-29.9,9.7-66.3-9.5-67.2-41c1.7,2.6,2.6,4.1,3.5,5.5c9.1,13.1,21.3,22.8,38.8,26.4c3.3,0.7,6.9,1.1,10.2,0.7c24.2-3.5,43.6-13.6,52.6-34.4c7.7-18,4.3-35.2-10.8-49.7c-13.6-12.9-34.1-12.5-47.2,0.3c-11.1,10.9-6.6,29.6,8.7,35.3c5.5,2.1,11.1,1.9,15.8-1.7c4.6-3.5,6.7-7.9,5.2-13.2c-1.1-3.7-4.3-6-8.3-6.2c-4-0.2-6.5,1.4-7.7,4.7c-0.2,0.5,0.1,1.2,0.3,2.3c1.1-0.7,1.9-1.1,2.4-1.6c1.7-1.7,4-2.5,5.6-0.8c1.2,1.2,1.7,3.6,1.3,5.2c-0.9,4.1-6.2,5.6-10.6,3.5c-3.7-1.8-5.7-6.1-4.6-10c2.4-8.9,14.5-12.5,22.7-6.9c6,4,7.7,9.6,7.8,15.9c0.2,11.2-6.5,19.4-18.6,22.6c-18.6,5-39.5-3-47-18.6c-3.1-6.4-4.7-13.5-6.5-20.4c-2.5-9.4-3.9-19-6.7-28.3c-4.8-16.1-14.2-30.3-27.5-41.9c-27-23.7-59.2-30.3-95.7-19.8c-16.2,4.7-29.9,12.5-41,23.9c-1.9,2-3.9,3.8-6.3,6.2c-2.6-0.8-5.4-1.4-8-2.3c-18.6-6.3-37.7-9.5-57.5-6.8c-11.8,1.6-23.2,5-34.7,7.8c-35.7,8.8-71.8,15.2-109.1,13.8c-7.1-0.3-14.1-1.4-21.1-2.1c-1.1-0.1-2.2-0.5-4.8-1c3-2.3,5.2-3.8,7.3-5.5c20.1-16.2,30.1-36,27.9-60.2c-1.3-14.5-13.1-32-26.2-39.8c1.1,2.1,1.6,3.4,2.4,4.4c11.6,14.3,12.2,37.5-7.7,53.8c-10.4,8.5-23,12.8-36.8,14.6c-4.1,0.5-8.3,0.8-12.4,0.9c-1.3,0-2.6-0.6-4.8-1.1c6.6-2.4,12.5-3.9,17.8-6.4c16.3-7.7,26.5-19.4,28.7-35.8c1.2-8.7-2.4-15.5-9.9-20.8c-0.2,0.3-0.7,0.7-0.6,1c3,9.4-1.1,16.7-8.3,23.3c-10.4,9.6-23.1,13.2-37.9,11.7c-17.5-1.8-33.7-7.1-48.5-15.5c-0.4-0.2-0.5-0.7-1.2-1.7c6.1,2.3,11.6,4.4,17.1,6.5c9.3,3.5,19.1,5.4,29.2,5.8c12.3,0.6,23.1-2.8,31.9-10.6c0.8-0.7,1.4-1.6,2.1-2.5c-0.6-0.3-0.8-0.5-1-0.4c-24.6,7.5-45.5-0.6-65.2-12.5c-5.6-3.4-10.3-7.8-15.4-11.9c-7.7-6.2-15.3-12.6-23.7-19.5c10.8,3.1,19.4,8.8,28.9,12.6c9.7,3.9,19,8.9,31.5,9.8c-2.6-1.4-4.2-2.1-5.5-3c-5.6-4.1-11.6-7.9-16.5-12.6c-8.6-8.5-16.2-17.7-24.7-26.3c-13.3-13.4-28.7-24.6-47.9-31c-5.6-1.9-11.6-2.9-19-4.7c15.8-2.3,28.9,0.7,41.7,5.9c0.3-0.4,0.6-0.8,0.9-1.2c-2-1.5-3.9-3.1-6.1-4.5c-19.7-12.5-41.8-19.3-65.9-21.4c-7.3-0.6-14.6-0.6-22-1c-5.3-0.3-10.5-0.8-15.8-1.3c0.2-13.2-7-21.1-17.1-17.8c5.9,3.1,9.8,7.1,9.2,13.3c-0.3,3.3-1.5,6.1-5.2,7.9c-0.4-9.8-3.2-12.8-10.8-10.7c1.3,1.6,3.2,2.9,3.5,4.5c0.5,2.1,0.4,4.8-0.7,6.6c-0.6,1-4.1,1.4-5.8,0.9c-8.3-2.3-15.3-0.5-22,3.9c-2.5,1.6-5.5,2.6-8.9,4.2c-7-11.6-13.8-22.8-25.4-30.8c-0.9-0.6-2-0.8-3.1-1.3c0.8,8.7,1.2,17,2.5,25.2c1.1,7.1-1.7,12-8.9,15.3c-12.1-10-21.3-21.7-27.4-35.3c-1.9-4.3-4.4-8.5-8.6-11.6c-3.9,1.5-3.6,4.4-4,6.8c-2,12.8,1.3,24.7,8.7,35.8c2.7,4.1,5.6,8.1,8.6,11.9c1.8,2.3,1.7,4.3-0.1,6.4c-7,8.5-13.8,17.1-20.9,25.6c-1.3,1.5-3.2,2.6-5,3.7c-4.3,2.7-5.7,6.3-4.7,10.7c0.3,1.3,0.6,2.5,0.9,3.8c2.7,9.9-0.1,18.8-7.5,26.4c-8.2,8.5-16.8,16.7-25.2,25.1c-3.9,3.9-8,7.6-11.5,11.7c-6.2,7.1-5.8,11-0.5,18.5c2.2,3.1,3.4,7.2,3.6,10.9c0.4,5.8,2.2,9.8,9.5,11.1c5.4,1,9.6,4.3,13,8c4.9,5.5,10.8,8.9,19,7.1c8.9-1.9,15.2-7,18.4-14.4c5-11.5,14.4-18,28.1-19.3c15.9-1.5,31.3-4.4,45.9-10.4c1.6-0.6,3.2-1.2,4.8-1.7c0.4-0.1,1,0,1.9,0c7.5,13.4,20,23.8,31.1,35.1c14.3,14.5,21.4,31.5,23.7,50.3c1.8,14.6,1.3,29.1-1.1,43.6c-3.5,21-6,42.2-4.7,63.4c0.5,7.9,1.9,15.8,3.7,23.5c1.6,6.7,4.7,13.1,10.2,18.3c3.4,3.2,3.4,6.4,1.7,10.5c-7.2,17.1-14.1,34.3-20.8,51.5c-3.5,9-4.9,18.3-4.6,27.8c0.3,8.1-2.7,15.7-6.5,22.9c-6.6,12.4-13.7,24.7-20.6,37c-3,5.4-5.9,10.7-6.4,16.9c-0.3,3.7-2.1,7.5-3.9,11c-10,18.6-19.5,37.4-30.7,55.5c-6.9,11.2-16.2,21.4-25.1,31.6c-3.9,4.5-9.5,8-14.4,11.8c-8.4,6.5-17.5,12.4-23,21.3c-5.8,9.3-3.4,13.7,8.7,14.4c17.3,1,34.1-1.6,50.6-5.9c8.1-2.2,11.5-8,6.7-13.9c-5.5-6.9-3.3-12.1,0.7-18c1.1-1.6,1.9-3.4,2.9-5c8.7,1.9,12.6,0.5,17.5-6c4.2-5.6,5.6-12,5.6-18.4c0-12.8,4.8-24.5,10.4-35.9c14.3-29,32.1-56.3,52.9-82.2c2.4-3,4.5-6.6,10.1-8.2c1.3,4.6,2.8,8.8,3.8,13.1c2.5,10.5,4.7,21,7,31.5c2,8.8,7.4,13.5,17.5,15c1.4,0.2,2.9,0.5,4.4,0.6c17.9,1.3,33.3,7.7,47.4,17.2c4,2.7,8.6,4.9,13.2,6.9c3.8,1.7,8,2.7,11.7-0.3c3.8-3,3.6-6.9,2-10.7c-1.1-2.8-2.5-5.6-3.9-8.3c-3.4-6.5-5.8-13.2-6.9-20.2c-1.1-7.1-5.1-9.9-13-8.9c-5.1,0.6-10,2-14.9,3.1c-2.1,0.5-4.2,1.1-6.4,1.4c-2.7,0.4-5-0.2-5.4-3c-0.5-4.6-3.9-6.9-8.1-9.2c-3.1-1.8-6-4.6-7.7-7.5c-7.3-13.3-14.5-26.7-21-40.3c-3.3-6.8-0.8-13.6,3.2-19.7c6-9.1,13.7-16.6,25.7-20c20.2-5.7,40.2-12.1,60.5-17.5c6.8-1.8,14.5-2.1,21.7-1.9c36.7,1.2,73.3,1.8,109.9-0.3c16.2-1,32-3.4,47.6-7.1c9.7-2.3,18.7-6,27.1-11.1c13.8-8.3,28.8-14.5,45.3-17.6c11.1-2.1,21.3-0.3,31.2,4.1c2.9,1.3,4.6,3.4,4.3,6.2c-0.4,3.2-0.8,6.5-2.3,9.3c-9.2,17.8-12.9,36.8-16.2,55.9c-0.4,2.6-1.2,5.1-1.3,7.6c-0.4,10.1-3.4,19.4-9.9,27.8c-1.1,1.4-2,3.1-2.1,4.7c-0.8,10.6-6.4,19.7-12,28.8c-10.7,17.2-23.3,33.2-38,48c-5.2,5.2-9.6,10.8-12.6,17.2c-1.2,2.6-2.7,5-4,7.6c-5.1,10.3-13,18.4-22.9,25.4c-7.9,5.6-15.1,12.2-22.1,18.7c-2.6,2.4-4.3,5.8-5.6,8.9c-2.1,5-0.1,9.2,4.7,12.4c7.5,5.1,16.9,5.6,25.4,1.1c8.2-4.3,14.3-10.5,19.1-17.5c5-7.1,9.9-14.4,9.5-23.3c-0.1-2.8,1.8-3.8,4.8-3.4c0.5,0.1,1,0.1,1.4,0.3c5.2,1.7,10.3,2.7,15.3-0.6c5.9-3.9,10.9-8.8,11-15.3c0.1-15.1,8.9-26.9,17.4-38.9c11.1-15.7,23.7-30.4,37.3-44.6c3.2-3.4,7.2-6.4,11.3-9c5.6-3.5,8.9-7.9,9.2-13.9c0.1-3.6,0.1-7.3-0.2-10.9c-1.6-17.8,5.3-33.7,14.4-49.1c0.5-0.9,1.5-1.5,2.7-2.7c5.7,10.1,12.3,19.2,21.4,26.3c19.5,15.2,30.3,35,40,55.5c3.3,7,4.3,14.9,5.4,22.6c1.7,11.5,2.8,23,3.8,34.5c0.3,3.6-0.5,7.3-1.2,10.8c-1.1,5.6-4.3,9.7-10.7,12c-9.7,3.6-16.1,10.5-21.2,18.1c-7.7,11.7-14.6,23.8-21.8,35.7c-0.7,1.1-1.2,2.4-1.5,3.6c-0.7,3.4,1.5,6.6,5.3,6.2c14.7-1.7,29.9-0.3,43.7-6.5c1.1-0.5,2.1-1,3.2-1.6c3.4-1.9,5.1-4.3,4.1-8.1c-1.2-4.5,0.1-8.9,2.2-13.1c2.2-4.3,4.6-8.5,6.7-12.9c1.1-2.4,3.1-3.2,5.7-3.1c4.2,0.1,8.3,0.5,12.5,0.4c6.7,0,9.6-3,6.9-8.2c-11-21.3-9.4-44-10.2-66.4c-0.7-19.7-0.6-39.4-0.6-59.2c0-9-2.9-16.3-10.9-22.8c-18-14.5-31.2-31.7-36.5-53.1c-1.3-5.2-1.6-10.1-0.2-15.2c2.2-8.4,4.2-16.7,6.6-25c0.7-2.4,2.1-4.8,3.8-6.8c11.5-13.4,22.1-27.2,30.9-42.1c0.6-0.9,1.1-1.9,1.9-2.8c17-20.7,18.5-43.2,9.8-66.8c-6.1-16.7-17.1-30.7-31.4-42.9c-1.4-1.2-3.2-1.9-4.1-3.5c10.8,2.6,19.3,8.1,26.2,15.3c11.6,12.2,19.3,26.4,23.7,41.7c5.3,18.3,9.9,36.7,14.5,55.1c3.9,15.8,9.3,31.1,17.9,45.4c18.3,30.9,47.5,45.1,87,42.5c36.5-2.3,60.7-20.1,76.5-48c0.2-0.3,0-0.8,0-1.8c-1.4,0.6-2.7,1.1-3.7,1.7c-12,7.8-25.7,12.3-40.2,14.9c-13.3,2.4-24.8-2.1-35.9-8.5c31.7,8.2,56.6-3.5,79.6-20.4c9.8-7.2,17.7-21.8,17.8-31.8c-1.6,2.8-2.4,4.7-3.7,6.4C983.4,490.7,981,495.3,977,498.2z"/></g></g><g></g><g></g><g></g><g></g><g></g><g></g><g></g><g></g><g></g><g></g><g></g><g></g><g></g><g></g><g></g></g>
</svg>